# xmcd
#
# Track frame offsets:
#	150
#	15575
#	30567
#	43832
#	55722
#	74175
#	90627
#	109507
#	124317
#	136265
#	153057
#	166740
#	185605
#	198697
#
# Disc length: 2875
#
# Revision: 1
# Processed by: cddbd v1.5.2PL0 Copyright (c) Steve Scherf et al.
# Submitted via: Broken Cross Disk Manager 3.94.2201
#
DISCID=bc0b390e
DTITLE=Charlie McCoy - Another side of Charlie Mc.Coy
DYEAR=1900
DGENRE=Country
TTITLE0=Southern Comfort
TTITLE1=Funcy Country living
TTITLE2=Fingertips
TTITLE3=You can't get off with you shoes off
TTITLE4=You got it all over him
TTITLE5=The friendship song
TTITLE6=Birdland
TTITLE7=Katy Hill
TTITLE8=Funcy country music
TTITLE9=She knows how to treat me right
TTITLE10=Take the new river
TTITLE11=It there were only time for love
TTITLE12=Invitation to the blues
TTITLE13=Little maggie
EXTD=ID3G: 2
EXTT0=
EXTT1=
EXTT2=
EXTT3=
EXTT4=
EXTT5=
EXTT6=
EXTT7=
EXTT8=
EXTT9=
EXTT10=
EXTT11=
EXTT12=
EXTT13=
PLAYORDER=
